<svg id="SvgjsSvg1036" xmlns="http://www.w3.org/2000/svg" version="1.1" xmlns:xlink="http://www.w3.org/1999/xlink" xmlns:svgjs="http://svgjs.com/svgjs" width="14" height="24" viewBox="0 0 14 24"><title>Path</title><desc>Created with Avocode.</desc><defs id="SvgjsDefs1037"></defs><path id="SvgjsPath1038" d="M711.5 1276.12L719.97 1285L711.5 1293.88C711.17 1294.25 711 1294.68 711 1295.16C711 1295.65 711.17 1296.0800000000002 711.5 1296.45C711.89 1296.82 712.33 1297 712.83 1297C713.33 1297 713.7800000000001 1296.82 714.1600000000001 1296.45L724.4300000000001 1286.25C724.8100000000001 1285.92 725.0000000000001 1285.51 725.0000000000001 1285C725.0000000000001 1284.49 724.8100000000001 1284.08 724.4300000000001 1283.75L714.1600000000001 1273.55C713.7800000000001 1273.18 713.33 1273 712.83 1273C712.33 1273 711.89 1273.18 711.5 1273.55C711.17 1273.9199999999998 711 1274.35 711 1274.84C711 1275.32 711.17 1275.75 711.5 1276.12Z " fill="#172b4d" fill-opacity="0.3" transform="matrix(1,0,0,1,-711,-1273)"></path></svg>