<svg id="SvgjsSvg1039" xmlns="http://www.w3.org/2000/svg" version="1.1" xmlns:xlink="http://www.w3.org/1999/xlink" xmlns:svgjs="http://svgjs.com/svgjs" width="8" height="14" viewBox="0 0 8 14"><title>Path</title><desc>Created with Avocode.</desc><defs id="SvgjsDefs1040"></defs><path id="SvgjsPath1041" d="M714.29 1455.82L719.13 1461L714.29 1466.18C714.0999999999999 1466.39 714 1466.64 714 1466.93C714 1467.21 714.1 1467.46 714.29 1467.68C714.51 1467.89 714.76 1468 715.05 1468C715.3299999999999 1468 715.5899999999999 1467.89 715.81 1467.68L721.67 1461.73C721.89 1461.54 722 1461.3 722 1461C722 1460.7 721.89 1460.46 721.67 1460.27L715.81 1454.32C715.5899999999999 1454.11 715.3299999999999 1454 715.05 1454C714.76 1454 714.51 1454.11 714.29 1454.32C714.0999999999999 1454.54 714 1454.79 714 1455.07C714 1455.36 714.1 1455.61 714.29 1455.82Z " fill="#172c4d" fill-opacity="1" transform="matrix(1,0,0,1,-714,-1454)"></path></svg>