<svg id="SvgjsSvg1008" xmlns="http://www.w3.org/2000/svg" version="1.1" xmlns:xlink="http://www.w3.org/1999/xlink" xmlns:svgjs="http://svgjs.com/svgjs" width="61" height="61" viewBox="0 0 61 61"><title>Oval</title><desc>Created with Avocode.</desc><defs id="SvgjsDefs1009"></defs><path id="SvgjsPath1010" d="M644 730.5C644 713.65532 657.65532 700 674.5 700C691.34468 700 705 713.65532 705 730.5C705 747.34468 691.34468 761 674.5 761C657.65532 761 644 747.34468 644 730.5Z " fill="#0099ce" fill-opacity="1" transform="matrix(1,0,0,1,-644,-700)"></path><path id="SvgjsPath1011" d="M682.94 723.16L682.94 719.17C682.94 717.9799999999999 681.96 717 680.75 717L669.56 717L669.53 717.02C669.36 717.02 669.1899999999999 717.0799999999999 669.05 717.1899999999999L663.27 722.06C663.12 722.1999999999999 663.03 722.38 663.01 722.56L663 722.56L663 739.9799999999999C663 741.17 663.98 742.1399999999999 665.19 742.1399999999999L680.75 742.1399999999999C681.96 742.1399999999999 682.94 741.1699999999998 682.94 739.9799999999999L682.94 736.3699999999999C682.8000000000001 736.4499999999999 682.6600000000001 736.5199999999999 682.5100000000001 736.5699999999999L681.4100000000001 736.93L681.4100000000001 739.9799999999999C681.4100000000001 740.3299999999999 681.1100000000001 740.6299999999999 680.7500000000001 740.6299999999999L665.1900000000002 740.6299999999999C664.8300000000002 740.6299999999999 664.5300000000002 740.3299999999999 664.5300000000002 739.9799999999999L664.5300000000002 722.9999999999999L669.3300000000002 718.9499999999999L669.3300000000002 723.4L666.9400000000002 723.4L666.9400000000002 724.92L670.8600000000001 724.92L670.8700000000001 718.52L680.7500000000001 718.52C681.1100000000001 718.52 681.4100000000001 718.81 681.4100000000001 719.17L681.4100000000001 724.68Z " fill="#ffffff" fill-opacity="1" transform="matrix(1,0,0,1,-644,-700)"></path><path id="SvgjsPath1012" d="M677 729.7L677.71 729L667.77 729C667.34 729 667 729.34 667 729.76C667 730.18 667.34 730.52 667.77 730.52L676.47 730.52L676.48 730.51C676.59 730.2 676.77 729.93 677 729.7 " fill="#ffffff" fill-opacity="1" transform="matrix(1,0,0,1,-644,-700)"></path><path id="SvgjsPath1013" d="M674.43 736L667.77 736C667.34 736 667 736.34 667 736.76C667 737.18 667.34 737.52 667.77 737.52L674.4399999999999 737.52C674.26 737.03 674.26 736.5 674.43 736 " fill="#ffffff" fill-opacity="1" transform="matrix(1,0,0,1,-644,-700)"></path><path id="SvgjsPath1014" d="M667.77 732C667.34 732 667 732.34 667 732.76C667 733.18 667.34 733.52 667.77 733.52L675.17 733.52L675.74 732Z " fill="#ffffff" fill-opacity="1" transform="matrix(1,0,0,1,-644,-700)"></path><path id="SvgjsPath1015" d="M681.46 733.91L678.98 734.73L678.38 734.15L679.29 731.76ZM690.16 727.57L691.25 726.5L686.7 722L678.25 730.37C678.18 730.44 678.12 730.53 678.08 730.64L676.0500000000001 735.99C675.95 736.27 676.0100000000001 736.57 676.21 736.78C676.36 736.9399999999999 676.5600000000001 737.02 676.77 737.02C676.85 737.02 676.93 737 677.01 736.98L682.37 735.21C682.48 735.1700000000001 682.58 735.11 682.67 735.0300000000001L689 728.7500000000001L687.92 727.6800000000001L682.62 732.9200000000001L680.23 730.5500000000001L686.7 724.1400000000001Z " fill="#ffffff" fill-opacity="1" transform="matrix(1,0,0,1,-644,-700)"></path></svg>