<svg id="SvgjsSvg1016" xmlns="http://www.w3.org/2000/svg" version="1.1" xmlns:xlink="http://www.w3.org/1999/xlink" xmlns:svgjs="http://svgjs.com/svgjs" width="61" height="61" viewBox="0 0 61 61"><title>Oval</title><desc>Created with Avocode.</desc><defs id="SvgjsDefs1017"></defs><path id="SvgjsPath1018" d="M1213 730.5C1213 713.65532 1226.65532 700 1243.5 700C1260.34468 700 1274 713.65532 1274 730.5C1274 747.34468 1260.34468 761 1243.5 761C1226.65532 761 1213 747.34468 1213 730.5Z " fill="#f4f9fb" fill-opacity="1" transform="matrix(1,0,0,1,-1213,-700)"></path><path id="SvgjsPath1019" d="M1243.14 731.63L1229.8600000000001 727.05L1243.3500000000001 722.4699999999999L1256.6200000000001 727.04ZM1259.48 726.98C1259.48 726.97 1259.48 726.97 1259.48 726.97C1259.45 726.7 1259.28 726.46 1259.02 726.37L1243.56 721.04C1243.4199999999998 720.99 1243.27 720.99 1243.1399999999999 721.04L1227.4699999999998 726.36C1227.1999999999998 726.46 1227.0299999999997 726.7 1226.9999999999998 726.97C1226.9999999999998 727 1226.9999999999998 727.02 1226.9999999999998 727.0500000000001C1226.9999999999998 727.07 1226.9999999999998 727.1 1226.9999999999998 727.1200000000001C1227.0299999999997 727.4000000000001 1227.1999999999998 727.6400000000001 1227.4699999999998 727.7300000000001L1242.9299999999998 733.0600000000002C1242.9899999999998 733.0900000000001 1243.07 733.1000000000001 1243.1399999999999 733.1000000000001C1243.2099999999998 733.1000000000001 1243.28 733.0900000000001 1243.35 733.0600000000002L1255.78 728.8300000000002L1255.78 733.3900000000001C1255.37 733.6400000000001 1255.09 734.0900000000001 1255.09 734.6200000000001C1255.09 735.1500000000001 1255.37 735.6100000000001 1255.78 735.8600000000001L1255.78 737.7900000000001C1255.78 738.19 1256.09 738.5100000000001 1256.47 738.5100000000001C1256.8500000000001 738.5100000000001 1257.15 738.19 1257.15 737.7900000000001L1257.15 735.85C1257.5600000000002 735.6 1257.8300000000002 735.15 1257.8300000000002 734.62C1257.8300000000002 734.1 1257.5600000000002 733.64 1257.15 733.4L1257.15 728.37L1259.02 727.73C1259.31 727.63 1259.49 727.35 1259.48 727.04C1259.48 727.02 1259.49 727 1259.48 726.98Z " fill="#0099ce" fill-opacity="1" transform="matrix(1,0,0,1,-1213,-700)"></path><path id="SvgjsPath1020" d="M1252.69 735.09C1250.56 737.1700000000001 1247.45 738.36 1244.1000000000001 738.36C1244.0800000000002 738.36 1244.0600000000002 738.36 1244.0300000000002 738.36C1244.0100000000002 738.36 1243.9800000000002 738.36 1243.9600000000003 738.36C1240.6100000000004 738.36 1237.5000000000002 737.17 1235.3700000000003 735.09L1235.3700000000003 731.8000000000001L1234.0000000000005 731.32L1234.0000000000005 735.4000000000001L1234.0000000000005 735.4000000000001C1234.0000000000005 735.45 1234.0000000000005 735.5000000000001 1234.0100000000004 735.5400000000001C1234.0200000000004 735.5600000000001 1234.0200000000004 735.58 1234.0300000000004 735.59C1234.0400000000004 735.62 1234.0400000000004 735.65 1234.0500000000004 735.6700000000001C1234.0600000000004 735.7 1234.0800000000004 735.72 1234.0900000000004 735.7400000000001C1234.1000000000004 735.7600000000001 1234.1100000000004 735.7800000000001 1234.1200000000003 735.8000000000001C1234.1400000000003 735.84 1234.1700000000003 735.8700000000001 1234.2000000000003 735.9100000000001L1234.2000000000003 735.9100000000001C1236.5900000000004 738.3700000000001 1240.1400000000003 739.7800000000001 1243.9600000000003 739.7800000000001C1243.9800000000002 739.7800000000001 1244.0100000000002 739.7800000000001 1244.0300000000002 739.7800000000001C1244.0600000000002 739.7800000000001 1244.0800000000002 739.7800000000001 1244.1000000000001 739.7800000000001C1247.92 739.7800000000001 1251.47 738.3700000000001 1253.8600000000001 735.9100000000001L1253.8600000000001 735.9100000000001C1253.89 735.8700000000001 1253.92 735.84 1253.95 735.8000000000001C1253.95 735.7900000000001 1253.96 735.7700000000001 1253.96 735.7600000000001C1253.98 735.7300000000001 1254 735.7000000000002 1254.01 735.6700000000001C1254.02 735.6500000000001 1254.02 735.6300000000001 1254.03 735.6100000000001C1254.04 735.5800000000002 1254.04 735.5600000000002 1254.05 735.5400000000001C1254.06 735.4900000000001 1254.06 735.45 1254.06 735.4000000000001L1254.06 735.4000000000001L1254.06 731.0000000000001L1252.69 731.4700000000001Z " fill="#0099ce" fill-opacity="1" transform="matrix(1,0,0,1,-1213,-700)"></path></svg>