<svg id="SvgjsSvg1046" xmlns="http://www.w3.org/2000/svg" version="1.1" xmlns:xlink="http://www.w3.org/1999/xlink" xmlns:svgjs="http://svgjs.com/svgjs" width="64" height="52" viewBox="0 0 64 52"><title>Fill 1</title><desc>Created with Avocode.</desc><defs id="SvgjsDefs1047"></defs><path id="SvgjsPath1048" d="M266.87 1511.25L264.2 1515.95C263.78 1516.69 264.03999999999996 1517.63 264.78999999999996 1518.05C265.03 1518.19 265.29999999999995 1518.25 265.54999999999995 1518.25C266.09999999999997 1518.25 266.62999999999994 1517.97 266.90999999999997 1517.46L269.51 1512.89C268.65 1512.3100000000002 267.83 1511.68 267.05 1511C266.98 1511.08 266.92 1511.16 266.87 1511.25 " fill="#0099ce" fill-opacity="1" transform="matrix(1,0,0,1,-261,-1467)"></path><path id="SvgjsPath1049" d="M302.59 1511.17C302.56 1511.1100000000001 302.52 1511.0500000000002 302.47999999999996 1511C301.68999999999994 1511.67 300.85999999999996 1512.31 299.99999999999994 1512.89L302.54999999999995 1517.38C302.84 1517.88 303.35999999999996 1518.17 303.90999999999997 1518.17C304.16999999999996 1518.17 304.42999999999995 1518.1000000000001 304.66999999999996 1517.97C305.41999999999996 1517.55 305.67999999999995 1516.6100000000001 305.25999999999993 1515.8700000000001Z " fill="#0099ce" fill-opacity="1" transform="matrix(1,0,0,1,-261,-1467)"></path><path id="SvgjsPath1050" d="M282.11 1491.35C282.06 1491.1 282.04 1490.84 282.04 1490.58C282.04 1490.3799999999999 282.07 1490.1899999999998 282.1 1490C282.04 1490.21 282 1490.42 282 1490.64C282 1490.89 282.05 1491.1200000000001 282.11 1491.3500000000001 " fill="#0099ce" fill-opacity="1" transform="matrix(1,0,0,1,-261,-1467)"></path><path id="SvgjsPath1051" d="M285 1511.51C273.48 1511.51 264.11 1502.22 264.11 1490.8C264.11 1479.3799999999999 273.48 1470.08 285 1470.08C295.13 1470.08 303.59 1477.27 305.49 1486.77L308.65000000000003 1486.77C306.72 1475.54 296.87000000000006 1467 285.00000000000006 1467C271.74000000000007 1467 261.00000000000006 1477.65 261.00000000000006 1490.8C261.00000000000006 1503.94 271.74000000000007 1514.59 285.00000000000006 1514.59C296.9100000000001 1514.59 306.7900000000001 1505.98 308.6700000000001 1494.6999999999998L305.51000000000005 1494.6999999999998C303.66 1504.2599999999998 295.1700000000001 1511.5099999999998 285.00000000000006 1511.5099999999998 " fill="#0099ce" fill-opacity="1" transform="matrix(1,0,0,1,-261,-1467)"></path><path id="SvgjsPath1052" d="M285.11 1502.88C278.49 1502.88 273.11 1497.5400000000002 273.11 1490.98C273.11 1484.42 278.49 1479.08 285.11 1479.08C290.3 1479.08 294.72 1482.37 296.39 1486.9499999999998L299.65 1486.9499999999998C297.88 1480.6399999999999 292.04999999999995 1475.9999999999998 285.10999999999996 1475.9999999999998C276.77 1475.9999999999998 269.99999999999994 1482.7099999999998 269.99999999999994 1490.9799999999998C269.99999999999994 1499.2599999999998 276.7699999999999 1505.9699999999998 285.10999999999996 1505.9699999999998C292.09 1505.9699999999998 297.94999999999993 1501.2599999999998 299.68999999999994 1494.8799999999999L296.42999999999995 1494.8799999999999C294.79999999999995 1499.53 290.34999999999997 1502.8799999999999 285.10999999999996 1502.8799999999999 " fill="#0099ce" fill-opacity="1" transform="matrix(1,0,0,1,-261,-1467)"></path><path id="SvgjsPath1053" d="M323.89 1495.15L320.21999999999997 1490.8600000000001L323.9 1486.5400000000002C324.45 1485.88 324.35999999999996 1484.91 323.71 1484.3600000000001C323.04999999999995 1483.8100000000002 322.07 1483.9 321.51 1484.5500000000002L317.75 1488.9900000000002C317.71 1489.0300000000002 317.69 1489.0700000000002 317.66 1489.1100000000001L314 1489.1100000000001L316.19 1486.5400000000002C316.74 1485.89 316.66 1484.91 316.01 1484.3700000000001C315.34999999999997 1483.8100000000002 314.37 1483.9 313.81 1484.5500000000002L309.96 1489.0700000000002C309.95 1489.0900000000001 309.94 1489.1000000000001 309.93 1489.1100000000001L286.56 1489.1100000000001C285.7 1489.1100000000001 285 1489.8000000000002 285 1490.65C285 1491.51 285.7 1492.2 286.56 1492.2L309.66 1492.2C309.71000000000004 1492.31 309.78000000000003 1492.43 309.87 1492.53L313.82 1497.1499999999999C314.12 1497.5099999999998 314.56 1497.6899999999998 315 1497.6899999999998C315.36 1497.6899999999998 315.72 1497.57 316.01 1497.33C316.65999999999997 1496.78 316.74 1495.8 316.19 1495.1499999999999L313.66 1492.1999999999998L317.36 1492.1999999999998C317.42 1492.3099999999997 317.48 1492.4299999999998 317.57 1492.5299999999997L321.52 1497.1499999999996C321.83 1497.5099999999995 322.26 1497.6899999999996 322.71 1497.6899999999996C323.06 1497.6899999999996 323.41999999999996 1497.5699999999997 323.71 1497.3299999999997C324.37 1496.7799999999997 324.45 1495.7999999999997 323.89 1495.1499999999996 " fill="#0099ce" fill-opacity="1" transform="matrix(1,0,0,1,-261,-1467)"></path><path id="SvgjsPath1054" d="M283.21 1493.2C282.65999999999997 1492.66 282.27 1491.95 282.10999999999996 1491.17C282.04999999999995 1490.94 282.03999999999996 1490.64 282.03999999999996 1490.4C282.03999999999996 1490.17 282.03999999999996 1490.0300000000002 282.09999999999997 1489.8200000000002C282.37999999999994 1487.91 284.03 1486.43 286.03999999999996 1486.43L289.60999999999996 1486.43C288.40999999999997 1484.95 286.58 1484 284.52 1484C280.91999999999996 1484 278 1486.89 278 1490.46C278 1494.03 280.92 1496.93 284.52 1496.93C286.64 1496.93 288.52 1495.92 289.71 1494.3600000000001L286.03999999999996 1494.3600000000001C284.92999999999995 1494.3600000000001 283.92999999999995 1493.92 283.21 1493.2 " fill="#0099ce" fill-opacity="1" transform="matrix(1,0,0,1,-261,-1467)"></path></svg>