<svg id="SvgjsSvg1027" xmlns="http://www.w3.org/2000/svg" version="1.1" xmlns:xlink="http://www.w3.org/1999/xlink" xmlns:svgjs="http://svgjs.com/svgjs" width="50" height="49" viewBox="0 0 50 49"><title>Fill 1</title><desc>Created with Avocode.</desc><defs id="SvgjsDefs1028"></defs><path id="SvgjsPath1029" d="M79.24 1480.29C79.24 1482.02 77.82 1483.42 76.05999999999999 1483.42L39.359999999999985 1483.42C37.609999999999985 1483.42 36.179999999999986 1482.02 36.179999999999986 1480.29L36.179999999999986 1444.25C36.179999999999986 1442.53 37.609999999999985 1441.13 39.359999999999985 1441.13L76.05999999999999 1441.13C77.82 1441.13 79.24 1442.5300000000002 79.24 1444.25ZM39.36 1438C35.86 1438 33 1440.81 33 1444.25L33 1480.29C33 1483.73 35.86 1486.54 39.36 1486.54L76.06 1486.54C79.56 1486.54 82.43 1483.73 82.43 1480.29L82.43 1444.25C82.43 1440.81 79.56 1438 76.06 1438Z " fill="#172c4d" fill-opacity="1" transform="matrix(1,0,0,1,-33,-1438)"></path><path id="SvgjsPath1030" d="M49.56 1469L42.59 1469C41.71 1469 41 1469.7 41 1470.56C41 1471.4299999999998 41.71 1472.1299999999999 42.59 1472.1299999999999L44.49 1472.1299999999999L44.49 1475.9499999999998L47.67 1475.9499999999998L47.67 1472.1299999999999L49.56 1472.1299999999999C50.440000000000005 1472.1299999999999 51.150000000000006 1471.4299999999998 51.150000000000006 1470.56C51.150000000000006 1469.7 50.440000000000005 1469 49.56 1469 " fill="#172c4d" fill-opacity="1" transform="matrix(1,0,0,1,-33,-1438)"></path><path id="SvgjsPath1031" d="M45 1466.87L48.18 1466.87L48.18 1448L45 1448Z " fill="#172c4d" fill-opacity="1" transform="matrix(1,0,0,1,-33,-1438)"></path><path id="SvgjsPath1032" d="M60.56 1456L53.59 1456C52.71 1456 52 1456.7 52 1457.56C52 1458.4299999999998 52.71 1459.1299999999999 53.59 1459.1299999999999L55.49 1459.1299999999999L55.49 1476.07L58.67 1476.07L58.67 1459.1299999999999L60.56 1459.1299999999999C61.440000000000005 1459.1299999999999 62.150000000000006 1458.4299999999998 62.150000000000006 1457.56C62.150000000000006 1456.7 61.440000000000005 1456 60.56 1456 " fill="#172c4d" fill-opacity="1" transform="matrix(1,0,0,1,-33,-1438)"></path><path id="SvgjsPath1033" d="M56 1453.75L59.18 1453.75L59.18 1448L56 1448Z " fill="#172c4d" fill-opacity="1" transform="matrix(1,0,0,1,-33,-1438)"></path><path id="SvgjsPath1034" d="M72.56 1462L65.59 1462C64.71000000000001 1462 64 1462.7 64 1463.56C64 1464.4299999999998 64.71 1465.1299999999999 65.59 1465.1299999999999L67.49000000000001 1465.1299999999999L67.49000000000001 1476.6999999999998L70.67000000000002 1476.6999999999998L70.67000000000002 1465.1299999999999L72.56000000000002 1465.1299999999999C73.44000000000001 1465.1299999999999 74.15000000000002 1464.4299999999998 74.15000000000002 1463.56C74.15000000000002 1462.7 73.44000000000003 1462 72.56000000000002 1462 " fill="#172c4d" fill-opacity="1" transform="matrix(1,0,0,1,-33,-1438)"></path><path id="SvgjsPath1035" d="M68 1459.11L71.18 1459.11L71.18 1448L68 1448Z " fill="#172c4d" fill-opacity="1" transform="matrix(1,0,0,1,-33,-1438)"></path></svg>