<svg id="SvgjsSvg1088" xmlns="http://www.w3.org/2000/svg" version="1.1" xmlns:xlink="http://www.w3.org/1999/xlink" xmlns:svgjs="http://svgjs.com/svgjs" width="66" height="63" viewBox="0 0 66 63"><title>Fill 1</title><desc>Created with Avocode.</desc><defs id="SvgjsDefs1089"></defs><path id="SvgjsPath1090" d="M1152.45 1192L1142.0900000000001 1192C1138.19 1192 1135.0000000000002 1195.19 1135.0000000000002 1199.09L1135.0000000000002 1212.61C1135.0000000000002 1215.85 1137.2000000000003 1218.59 1140.1700000000003 1219.4299999999998L1140.1700000000003 1234.59L1143.6700000000003 1234.59L1143.6800000000003 1216.1999999999998L1142.0900000000004 1216.1999999999998C1140.1100000000004 1216.1999999999998 1138.5000000000005 1214.59 1138.5000000000005 1212.61L1138.5000000000005 1199.09C1138.5000000000005 1197.11 1140.1100000000004 1195.5 1142.0900000000004 1195.5L1152.4500000000003 1195.5C1154.4200000000003 1195.5 1156.0300000000002 1197.11 1156.0300000000002 1199.09L1156.0300000000002 1212.61C1156.0300000000002 1214.59 1154.4200000000003 1216.1999999999998 1152.4500000000003 1216.1999999999998L1150.8600000000004 1216.1999999999998L1150.8600000000004 1234.59L1154.3600000000004 1234.59L1154.3600000000004 1219.4299999999998C1157.3400000000004 1218.59 1159.5300000000004 1215.85 1159.5300000000004 1212.61L1159.5300000000004 1199.09C1159.5300000000004 1195.1899999999998 1156.3400000000004 1192 1152.4500000000005 1192 " fill="#0099ce" fill-opacity="1" transform="matrix(1,0,0,1,-1114,-1172)"></path><path id="SvgjsPath1091" d="M1179.33 1204.51C1179.33 1204.06 1179.1599999999999 1203.61 1178.82 1203.27L1173.21 1197.65C1173.2 1197.65 1173.2 1197.65 1173.2 1197.65L1173.06 1197.51C1172.3799999999999 1196.83 1171.27 1196.83 1170.59 1197.51C1169.9099999999999 1198.2 1169.9099999999999 1199.3 1170.59 1199.99L1173.3899999999999 1202.79L1165.7499999999998 1202.79C1164.7799999999997 1202.79 1163.9999999999998 1203.57 1163.9999999999998 1204.54C1163.9999999999998 1205.5 1164.7799999999997 1206.29 1165.7499999999998 1206.29L1173.3799999999999 1206.29L1170.7399999999998 1208.93C1170.0499999999997 1209.6100000000001 1170.0499999999997 1210.72 1170.7399999999998 1211.4C1171.0799999999997 1211.74 1171.5299999999997 1211.91 1171.9699999999998 1211.91C1172.4199999999998 1211.91 1172.87 1211.74 1173.2099999999998 1211.4L1178.8199999999997 1205.7900000000002C1179.1799999999996 1205.4300000000003 1179.3399999999997 1204.9700000000003 1179.3299999999997 1204.5100000000002 " fill="#0099ce" fill-opacity="1" transform="matrix(1,0,0,1,-1114,-1172)"></path><path id="SvgjsPath1092" d="M1128.56 1202.79L1120.9299999999998 1202.79L1123.7299999999998 1199.99C1124.4099999999999 1199.3 1124.4099999999999 1198.2 1123.7299999999998 1197.51C1123.0499999999997 1196.83 1121.9399999999998 1196.83 1121.2499999999998 1197.51L1121.1199999999997 1197.65L1121.1099999999997 1197.65L1115.6599999999996 1203.13C1115.6499999999996 1203.13 1115.6499999999996 1203.13 1115.6499999999996 1203.13L1115.5099999999995 1203.2700000000002C1115.2499999999995 1203.5300000000002 1115.0899999999995 1203.8600000000001 1115.0299999999995 1204.2100000000003C1114.9199999999996 1204.7600000000002 1115.0799999999995 1205.3600000000004 1115.5099999999995 1205.7900000000002L1121.1099999999994 1211.4C1121.4499999999994 1211.74 1121.8999999999994 1211.91 1122.3499999999995 1211.91C1122.7899999999995 1211.91 1123.2399999999996 1211.74 1123.5799999999995 1211.4C1124.2699999999995 1210.72 1124.2699999999995 1209.6100000000001 1123.5799999999995 1208.93L1120.9399999999994 1206.29L1128.5599999999993 1206.29C1129.5299999999993 1206.29 1130.3099999999993 1205.5 1130.3099999999993 1204.54C1130.3099999999993 1203.57 1129.5199999999993 1202.79 1128.5599999999993 1202.79 " fill="#0099ce" fill-opacity="1" transform="matrix(1,0,0,1,-1114,-1172)"></path><path id="SvgjsPath1093" d="M1142.5 1180.24C1142.5 1177.63 1144.63 1175.5 1147.24 1175.5C1149.85 1175.5 1151.97 1177.63 1151.97 1180.24C1151.97 1182.85 1149.8500000000001 1184.98 1147.24 1184.98C1144.63 1184.98 1142.5 1182.85 1142.5 1180.24ZM1139 1180.24C1139 1184.79 1142.69 1188.48 1147.24 1188.48C1151.79 1188.48 1155.47 1184.79 1155.47 1180.24C1155.47 1175.69 1151.79 1172 1147.24 1172C1142.69 1172 1139 1175.69 1139 1180.24Z " fill="#0099ce" fill-opacity="1" transform="matrix(1,0,0,1,-1114,-1172)"></path></svg>