<svg id="SvgjsSvg1067" xmlns="http://www.w3.org/2000/svg" version="1.1" xmlns:xlink="http://www.w3.org/1999/xlink" xmlns:svgjs="http://svgjs.com/svgjs" width="65" height="64" viewBox="0 0 65 64"><title>Fill 1</title><desc>Created with Avocode.</desc><defs id="SvgjsDefs1068"></defs><path id="SvgjsPath1069" d="M582.75 1181.19C581.78 1181.19 581 1180.41 581 1179.44L581 1172.75C581 1171.78 581.78 1171 582.75 1171C583.72 1171 584.5 1171.78 584.5 1172.75L584.5 1179.44C584.5 1180.41 583.72 1181.19 582.75 1181.19 " fill="#0099ce" fill-opacity="1" transform="matrix(1,0,0,1,-547,-1171)"></path><path id="SvgjsPath1070" d="M609.44 1201.5L602.75 1201.5C601.78 1201.5 601 1200.72 601 1199.75C601 1198.78 601.78 1198 602.75 1198L609.44 1198C610.4100000000001 1198 611.19 1198.78 611.19 1199.75C611.19 1200.72 610.4100000000001 1201.5 609.44 1201.5 " fill="#0099ce" fill-opacity="1" transform="matrix(1,0,0,1,-547,-1171)"></path><path id="SvgjsPath1071" d="M601.48 1220.23C601.03 1220.23 600.59 1220.06 600.25 1219.72L595.51 1214.99C594.83 1214.3 594.83 1213.2 595.51 1212.51C596.2 1211.83 597.3 1211.83 597.99 1212.51L602.72 1217.24C603.4 1217.93 603.4 1219.04 602.72 1219.72C602.38 1220.06 601.9300000000001 1220.23 601.48 1220.23 " fill="#0099ce" fill-opacity="1" transform="matrix(1,0,0,1,-547,-1171)"></path><path id="SvgjsPath1072" d="M568.48 1187.23C568.03 1187.23 567.59 1187.06 567.24 1186.72L562.51 1181.99C561.83 1181.3 561.83 1180.2 562.51 1179.51C563.2 1178.83 564.31 1178.83 564.99 1179.51L569.72 1184.25C570.4 1184.93 570.4 1186.04 569.72 1186.72C569.38 1187.06 568.9300000000001 1187.23 568.48 1187.23 " fill="#0099ce" fill-opacity="1" transform="matrix(1,0,0,1,-547,-1171)"></path><path id="SvgjsPath1073" d="M596.75 1187.23C596.3 1187.23 595.85 1187.06 595.51 1186.72C594.83 1186.04 594.83 1184.93 595.51 1184.25L600.25 1179.51C600.93 1178.83 602.04 1178.83 602.72 1179.51C603.4 1180.2 603.4 1181.3 602.72 1181.99L597.99 1186.72C597.65 1187.06 597.2 1187.23 596.75 1187.23 " fill="#0099ce" fill-opacity="1" transform="matrix(1,0,0,1,-547,-1171)"></path><path id="SvgjsPath1074" d="M590.75 1182.67C590.52 1182.67 590.29 1182.6200000000001 590.07 1182.53C589.1800000000001 1182.1499999999999 588.7600000000001 1181.1299999999999 589.1400000000001 1180.24L591.7400000000001 1174.07C592.1200000000001 1173.1799999999998 593.1400000000001 1172.76 594.0300000000001 1173.1399999999999C594.9200000000001 1173.5099999999998 595.34 1174.54 594.96 1175.4299999999998L592.36 1181.6C592.08 1182.27 591.4300000000001 1182.6699999999998 590.75 1182.6699999999998 " fill="#0099ce" fill-opacity="1" transform="matrix(1,0,0,1,-547,-1171)"></path><path id="SvgjsPath1075" d="M601.75 1194.02C601.06 1194.02 600.41 1193.61 600.13 1192.93C599.77 1192.03 600.2 1191.01 601.09 1190.65L607.2900000000001 1188.13C608.19 1187.7600000000002 609.21 1188.2 609.57 1189.0900000000001C609.94 1189.9900000000002 609.5 1191.0100000000002 608.61 1191.3700000000001L602.41 1193.89C602.1899999999999 1193.98 601.9699999999999 1194.0200000000002 601.75 1194.0200000000002 " fill="#0099ce" fill-opacity="1" transform="matrix(1,0,0,1,-547,-1171)"></path><path id="SvgjsPath1076" d="M593.27 1225.7C592.5799999999999 1225.7 591.93 1225.29 591.65 1224.6100000000001L589.13 1218.41C588.77 1217.52 589.2 1216.49 590.09 1216.13C590.99 1215.7600000000002 592.01 1216.2 592.37 1217.0900000000001L594.89 1223.2900000000002C595.26 1224.1900000000003 594.83 1225.2100000000003 593.93 1225.5700000000002C593.7199999999999 1225.66 593.4899999999999 1225.7000000000003 593.27 1225.7000000000003 " fill="#0099ce" fill-opacity="1" transform="matrix(1,0,0,1,-547,-1171)"></path><path id="SvgjsPath1077" d="M575.27 1182.7C574.5799999999999 1182.7 573.92 1182.29 573.65 1181.6100000000001L571.13 1175.41C570.77 1174.51 571.2 1173.49 572.09 1173.13C572.99 1172.7700000000002 574.01 1173.2 574.37 1174.0900000000001L576.89 1180.2900000000002C577.25 1181.1900000000003 576.8199999999999 1182.2100000000003 575.93 1182.5700000000002C575.7099999999999 1182.66 575.4899999999999 1182.7000000000003 575.27 1182.7000000000003 " fill="#0099ce" fill-opacity="1" transform="matrix(1,0,0,1,-547,-1171)"></path><path id="SvgjsPath1078" d="M606.92 1211.1C606.6899999999999 1211.1 606.4599999999999 1211.06 606.24 1210.9699999999998L600.07 1208.36C599.1800000000001 1207.99 598.7600000000001 1206.9599999999998 599.1400000000001 1206.07C599.5200000000001 1205.1799999999998 600.5400000000001 1204.76 601.4300000000001 1205.1399999999999L607.6 1207.7399999999998C608.49 1208.12 608.9 1209.1399999999999 608.53 1210.0299999999997C608.25 1210.6999999999998 607.6 1211.0999999999997 606.92 1211.0999999999997 " fill="#0099ce" fill-opacity="1" transform="matrix(1,0,0,1,-547,-1171)"></path><path id="SvgjsPath1079" d="M577.97 1230.99C577.99 1230.99 578.08 1231.01 578.2 1231.01C578.5200000000001 1231.01 579.2 1230.9 580.1500000000001 1230.17C582.21 1228.65 584.2400000000001 1226.8400000000001 584.58 1226.21C584.59 1226.19 584.6 1226.17 584.6 1226.15C584.6 1226.1000000000001 584.57 1225.94 584.33 1225.69L577.59 1219.1200000000001C577.5300000000001 1219.0600000000002 577.47 1218.99 577.4200000000001 1218.93C577.4100000000001 1218.92 576.8900000000001 1218.49 576.1400000000001 1218.73L570.9900000000001 1220.44C570.3200000000002 1220.67 569.5800000000002 1220.46 569.1200000000001 1219.93C568.9500000000002 1219.74 565.0700000000002 1215.27 562.9500000000002 1211.9C562.9400000000002 1211.89 562.9400000000002 1211.88 562.9300000000002 1211.8700000000001L562.9200000000002 1211.8600000000001C560.5400000000002 1208.66 557.7600000000002 1203.41 557.6500000000002 1203.19C557.3200000000002 1202.5700000000002 557.4000000000002 1201.81 557.8400000000003 1201.26L561.3000000000003 1197.07C561.8900000000003 1196.35 561.5900000000003 1195.81 561.5800000000003 1195.81C561.5400000000003 1195.73 561.5000000000002 1195.6599999999999 561.4600000000003 1195.58L557.7500000000002 1186.87C557.6200000000002 1186.6 557.4800000000002 1186.52 557.4400000000003 1186.51C557.4100000000003 1186.51 557.3900000000003 1186.5 557.3600000000002 1186.5C556.6900000000003 1186.58 554.2500000000002 1187.82 552.1200000000002 1189.18C550.7600000000002 1190.01 550.5500000000002 1190.77 550.5200000000002 1190.97C550.5400000000002 1191.05 550.5200000000002 1191.02 550.5200000000002 1191.15C550.2500000000002 1197.24 553.3700000000002 1205.26 559.3100000000002 1213.74C559.4300000000002 1213.92 559.5300000000002 1214.06 559.5900000000001 1214.14C559.6800000000002 1214.2700000000002 559.8200000000002 1214.48 560.0100000000001 1214.76C567.44 1225.67 573.7600000000001 1229.57 577.7700000000001 1230.92C577.9000000000001 1230.96 577.8700000000001 1230.93 577.9600000000002 1230.99ZM576.58 1234.21C570.0400000000001 1231.98 563.49 1226.1000000000001 557.12 1216.73C556.95 1216.47 556.82 1216.29 556.74 1216.18C556.72 1216.16 556.7 1216.13 556.69 1216.1000000000001C556.6400000000001 1216.0300000000002 556.5600000000001 1215.92 556.44 1215.7500000000002C549.99 1206.5300000000002 546.73 1198.0000000000002 547.0200000000001 1191.0600000000002C547.0100000000001 1190.3700000000001 547.2300000000001 1188.0500000000002 550.2800000000001 1186.2100000000003C551.7500000000001 1185.2700000000002 555.4800000000001 1183.0000000000002 557.3800000000001 1183.0000000000002C557.5100000000001 1183.0000000000002 557.6300000000001 1183.0100000000002 557.7400000000001 1183.0200000000002C558.8200000000002 1183.1200000000001 560.1700000000001 1183.7900000000002 560.9400000000002 1185.4500000000003L564.6400000000002 1194.1100000000004C565.2100000000003 1195.1500000000003 565.6600000000002 1197.2800000000004 564.0000000000002 1199.2900000000004L561.2900000000002 1202.5800000000004C562.2000000000002 1204.2300000000005 564.0700000000002 1207.5300000000004 565.6800000000002 1209.7100000000005C565.7100000000002 1209.7400000000005 565.7300000000001 1209.7700000000004 565.7600000000002 1209.8000000000004C565.7800000000002 1209.8300000000004 565.7900000000002 1209.8500000000004 565.8100000000002 1209.8800000000003C565.8300000000002 1209.9000000000003 565.8400000000001 1209.9300000000003 565.8600000000001 1209.9500000000003C565.8900000000001 1209.9900000000002 565.9100000000001 1210.0300000000002 565.9400000000002 1210.0700000000002C567.3800000000002 1212.3600000000001 569.7900000000002 1215.3000000000002 571.0000000000001 1216.7500000000002L575.0400000000001 1215.4100000000003C575.59 1215.2300000000002 576.1400000000001 1215.1400000000003 576.6700000000001 1215.1400000000003C578.58 1215.1400000000003 579.73 1216.2600000000002 580.1 1216.6700000000003L586.82 1223.2200000000003C588.2900000000001 1224.7600000000002 588.22 1226.4200000000003 587.9200000000001 1227.2600000000002C587.4000000000001 1228.9300000000003 584.57 1231.2700000000002 582.2500000000001 1232.9600000000003C580.6100000000001 1234.2300000000002 579.1400000000001 1234.5100000000002 578.2000000000002 1234.5100000000002C577.4200000000002 1234.5100000000002 576.8600000000001 1234.3300000000002 576.5800000000002 1234.2100000000003Z " fill="#0099ce" fill-opacity="1" transform="matrix(1,0,0,1,-547,-1171)"></path></svg>