<svg id="SvgjsSvg1060" xmlns="http://www.w3.org/2000/svg" version="1.1" xmlns:xlink="http://www.w3.org/1999/xlink" xmlns:svgjs="http://svgjs.com/svgjs" width="64" height="59" viewBox="0 0 64 59"><title>Fill 3</title><desc>Created with Avocode.</desc><defs id="SvgjsDefs1061"></defs><path id="SvgjsPath1062" d="M315.74 1188.22L315.74 1179C315.74 1176.25 313.48 1174 310.72 1174L285.04 1174L284.97 1174.04C284.59000000000003 1174.05 284.20000000000005 1174.18 283.88000000000005 1174.45L270.63000000000005 1185.69C270.27000000000004 1185.99 270.07000000000005 1186.41 270.02000000000004 1186.8400000000001L270.00000000000006 1186.8400000000001L270.00000000000006 1227.0300000000002C270.00000000000006 1229.7800000000002 272.26000000000005 1232.0300000000002 275.02000000000004 1232.0300000000002L310.72 1232.0300000000002C313.48 1232.0300000000002 315.74 1229.7800000000002 315.74 1227.0300000000002L315.74 1218.7100000000003C315.42 1218.8900000000003 315.09000000000003 1219.0500000000002 314.75 1219.1600000000003L312.22 1220.0000000000002L312.22 1227.0300000000002C312.22 1227.8400000000001 311.54 1228.5300000000002 310.72 1228.5300000000002L275.02000000000004 1228.5300000000002C274.20000000000005 1228.5300000000002 273.51000000000005 1227.8400000000001 273.51000000000005 1227.0300000000002L273.51000000000005 1187.8400000000001L284.53000000000003 1178.4900000000002L284.53000000000003 1188.7700000000002L279.03000000000003 1188.7700000000002L279.03000000000003 1192.2700000000002L288.03000000000003 1192.2700000000002L288.04 1177.5000000000002L310.72 1177.5000000000002C311.54 1177.5000000000002 312.22 1178.1900000000003 312.22 1179.0000000000002L312.22 1191.7200000000003Z " fill="#0099ce" fill-opacity="1" transform="matrix(1,0,0,1,-270,-1174)"></path><path id="SvgjsPath1063" d="M301.95 1202.61L303.56 1201L280.76 1201C279.78999999999996 1201 279 1201.78 279 1202.75C279 1203.72 279.79 1204.5 280.76 1204.5L300.73 1204.5L300.74 1204.48C301 1203.77 301.41 1203.14 301.95 1202.6100000000001 " fill="#0099ce" fill-opacity="1" transform="matrix(1,0,0,1,-270,-1174)"></path><path id="SvgjsPath1064" d="M296.05 1217L280.76 1217C279.78999999999996 1217 279 1217.78 279 1218.75C279 1219.72 279.79 1220.5 280.76 1220.5L296.06 1220.5C295.66 1219.38 295.65 1218.15 296.05 1217 " fill="#0099ce" fill-opacity="1" transform="matrix(1,0,0,1,-270,-1174)"></path><path id="SvgjsPath1065" d="M280.76 1209C279.78999999999996 1209 279 1209.78 279 1210.75C279 1211.72 279.79 1212.5 280.76 1212.5L297.73 1212.5L299.05 1209Z " fill="#0099ce" fill-opacity="1" transform="matrix(1,0,0,1,-270,-1174)"></path><path id="SvgjsPath1066" d="M311.52 1212.48L305.83 1214.3700000000001L304.46999999999997 1213.0300000000002L306.53999999999996 1207.5200000000002ZM331.49 1197.86L333.97 1195.3899999999999L323.54 1184.9999999999998L304.17 1204.3099999999997C303.99 1204.4799999999998 303.85 1204.6899999999998 303.77000000000004 1204.9299999999996L299.11 1217.2899999999995C298.87 1217.9199999999996 299.02000000000004 1218.6299999999994 299.49 1219.1199999999994C299.83 1219.4699999999993 300.29 1219.6499999999994 300.76 1219.6499999999994C300.94 1219.6499999999994 301.13 1219.6199999999994 301.31 1219.5599999999995L313.6 1215.4799999999996C313.86 1215.3999999999996 314.1 1215.2499999999995 314.29 1215.0599999999995L328.82 1200.5799999999995L326.33 1198.1099999999994L314.2 1210.1999999999994L308.71 1204.7299999999993L323.53999999999996 1189.9399999999994Z " fill="#0099ce" fill-opacity="1" transform="matrix(1,0,0,1,-270,-1174)"></path></svg>