<svg id="SvgjsSvg1080" xmlns="http://www.w3.org/2000/svg" version="1.1" xmlns:xlink="http://www.w3.org/1999/xlink" xmlns:svgjs="http://svgjs.com/svgjs" width="74" height="48" viewBox="0 0 74 48"><title>Fill 1</title><desc>Created with Avocode.</desc><defs id="SvgjsDefs1081"></defs><path id="SvgjsPath1082" d="M832.5 1211.25C832.5 1212.49 831.49 1213.5 830.25 1213.5C829.01 1213.5 828 1212.49 828 1211.25C828 1210.01 829.01 1209 830.25 1209C831.49 1209 832.5 1210.01 832.5 1211.25 " fill="#0099ce" fill-opacity="1" transform="matrix(1,0,0,1,-828,-1184)"></path><path id="SvgjsPath1083" d="M871.61 1224.74C870.6 1225.14 869.85 1225.25 869.04 1224.3L867.74 1222.01L864.27 1215.89C863.8 1215.0500000000002 862.73 1214.75 861.89 1215.23C861.05 1215.7 860.75 1216.77 861.23 1217.6100000000001L864.6700000000001 1223.68L864.73 1223.79L864.73 1223.79L865.6 1225.27L866.25 1226.37L866.35 1226.53C866.49 1226.7 866.63 1226.86 866.77 1227C867.9499999999999 1228.18 869.21 1228.54 870.3299999999999 1228.54C871.6099999999999 1228.54 872.7099999999999 1228.08 873.28 1227.84C873.38 1227.8 873.4599999999999 1227.76 873.53 1227.73L872.86 1226.68Z " fill="#0099ce" fill-opacity="1" transform="matrix(1,0,0,1,-828,-1184)"></path><path id="SvgjsPath1084" d="M863.21 1226.72C863.1 1226.78 862.2 1227.2 861.2 1225.99L861.1800000000001 1225.95L858.2700000000001 1220.88C857.7900000000001 1220.0400000000002 856.7200000000001 1219.75 855.8800000000001 1220.23C855.0400000000001 1220.71 854.7500000000001 1221.78 855.2300000000001 1222.6200000000001L857.9900000000001 1227.43L858.0600000000002 1227.55L858.0500000000002 1227.56L858.1600000000002 1227.74L858.2300000000002 1227.8700000000001C859.6000000000003 1229.7500000000002 861.2400000000002 1230.3400000000001 862.6200000000002 1230.3400000000001C863.5500000000002 1230.3400000000001 864.3600000000002 1230.0800000000002 864.9000000000002 1229.7900000000002L863.4400000000002 1227.14Z " fill="#0099ce" fill-opacity="1" transform="matrix(1,0,0,1,-828,-1184)"></path><path id="SvgjsPath1085" d="M898.25 1212C897.01 1212 896 1213.01 896 1214.25C896 1215.49 897.01 1216.5 898.25 1216.5C899.49 1216.5 900.5 1215.49 900.5 1214.25C900.5 1213.01 899.49 1212 898.25 1212 " fill="#0099ce" fill-opacity="1" transform="matrix(1,0,0,1,-828,-1184)"></path><path id="SvgjsPath1086" d="M854.43 1227.94C853.55 1227.93 852.42 1227.6000000000001 851.5999999999999 1226.2L843.8799999999999 1212.98L840.0299999999999 1212.98L840.0299999999999 1191.59L851.2499999999999 1191.59L854.0299999999999 1188.09L840.0299999999999 1188.09L840.0299999999999 1184L828.0799999999998 1184L828.0799999999998 1187.5L836.5299999999999 1187.5L836.5299999999999 1217.55L827.9999999999999 1217.55L827.9999999999999 1221.05L840.0299999999999 1221.05L840.0299999999999 1216.5L841.8799999999999 1216.5L848.5799999999999 1227.97C850.17 1230.66 852.53 1231.43 854.4899999999999 1231.43C855.18 1231.43 855.81 1231.3300000000002 856.3499999999999 1231.18Z " fill="#0099ce" fill-opacity="1" transform="matrix(1,0,0,1,-828,-1184)"></path><path id="SvgjsPath1087" d="M883.65 1217.72L872.78 1196.95L872.78 1196.9C871.8299999999999 1196.8400000000001 865.89 1196.3200000000002 865.8299999999999 1196.3200000000002L865.0099999999999 1196.2400000000002L857.6999999999999 1203.6700000000003C856.4999999999999 1204.5700000000004 855.41 1204.9100000000003 854.4499999999999 1204.6900000000003C853.4899999999999 1204.4700000000003 852.6899999999999 1203.6900000000003 852.18 1203.0200000000002L860.18 1192.5900000000001C862.5 1189.67 864.68 1189.5100000000002 864.7099999999999 1189.5100000000002L877.4599999999999 1189.5000000000002L889.2499999999999 1194.6500000000003L889.2499999999999 1217.7000000000003ZM892.75 1190.83L901.22 1190.83L901.22 1187.33L889.25 1187.33L889.25 1190.83L878.3 1186.05L878.3 1186L864.6899999999999 1186.01C864.3 1186.02 860.8 1186.19 857.43 1190.43L848 1202.72L848.47 1203.69C848.65 1204.06 850.3100000000001 1207.3 853.62 1208.0900000000001C854.1 1208.2 854.57 1208.2600000000002 855.05 1208.2600000000002C856.65 1208.2600000000002 858.29 1207.63 859.92 1206.38L866.3499999999999 1199.8700000000001C867.3699999999999 1199.96 869.1299999999999 1200.1100000000001 870.55 1200.23L881.4499999999999 1221.07C881.4499999999999 1221.08 881.4499999999999 1221.09 881.4399999999999 1221.09C880.91 1222.09 880.3 1222.9399999999998 879.77 1223.35C879.63 1223.4499999999998 879.5 1223.52 879.38 1223.56C879.34 1223.57 879.3 1223.6 879.26 1223.6C879.1 1223.61 878.73 1223.4599999999998 878.23 1222.9099999999999L875.28 1218.31L871.17 1211.87C870.64 1211.05 869.56 1210.81 868.75 1211.33C867.93 1211.85 867.7 1212.9399999999998 868.22 1213.75L872.01 1219.69L872.27 1220.0900000000001L874.21 1223.1000000000001L875.45 1225.0400000000002L875.48 1225.0800000000002C875.52 1225.13 875.57 1225.18 875.61 1225.2300000000002C875.63 1225.2400000000002 875.64 1225.2700000000002 875.66 1225.2800000000002C876.28 1225.9600000000003 876.92 1226.4400000000003 877.6 1226.7400000000002C878.12 1226.9700000000003 878.66 1227.1000000000001 879.21 1227.1000000000001C879.27 1227.1000000000001 879.32 1227.1000000000001 879.38 1227.1000000000001C879.46 1227.0900000000001 879.53 1227.0900000000001 879.61 1227.0800000000002C880.32 1227.0100000000002 880.97 1226.7500000000002 881.5500000000001 1226.3600000000001C883.4000000000001 1225.15 884.6300000000001 1222.73 885.2600000000001 1221.21L889.2500000000001 1221.2L889.2500000000001 1224.38L901.3000000000001 1224.38L901.3000000000001 1220.88L892.7500000000001 1220.88Z " fill="#0099ce" fill-opacity="1" transform="matrix(1,0,0,1,-828,-1184)"></path></svg>