<svg width="35" height="35" viewBox="0 0 35 35" xmlns="http://www.w3.org/2000/svg"><title>glyph-logo_May2016</title><g fill="#FFF" fill-rule="evenodd"><path d="M17.5 3.158c4.671 0 5.225.017 7.07.102 1.705.078 2.631.363 3.248.602.816.317 1.4.697 2.011 1.309a5.42 5.42 0 0 1 1.309 2.011c.24.617.524 1.543.602 3.249.085 1.844.102 2.398.102 7.069 0 4.671-.017 5.225-.102 7.07-.077 1.705-.362 2.631-.602 3.248a5.42 5.42 0 0 1-1.309 2.011 5.42 5.42 0 0 1-2.011 1.309c-.617.24-1.543.524-3.249.602-1.844.085-2.397.102-7.069.102-4.672 0-5.225-.017-7.07-.102-1.705-.077-2.631-.362-3.248-.602a5.42 5.42 0 0 1-2.011-1.309 5.42 5.42 0 0 1-1.309-2.011c-.24-.617-.525-1.543-.602-3.249-.085-1.844-.102-2.398-.102-7.069 0-4.671.017-5.225.102-7.07.078-1.705.363-2.631.602-3.248a5.42 5.42 0 0 1 1.309-2.011 5.42 5.42 0 0 1 2.011-1.309c.617-.24 1.543-.525 3.249-.602 1.844-.085 2.398-.102 7.069-.102m0-3.153c-4.751 0-5.347.02-7.213.106C8.425.196 7.153.49 6.04.924a8.575 8.575 0 0 0-3.098 2.018A8.575 8.575 0 0 0 .924 6.04C.491 7.153.196 8.425.111 10.287.026 12.153.006 12.75.006 17.5c0 4.751.02 5.347.105 7.213.085 1.862.38 3.134.813 4.247a8.576 8.576 0 0 0 2.018 3.098 8.575 8.575 0 0 0 3.098 2.018c1.113.433 2.385.728 4.247.813 1.866.085 2.462.105 7.213.105 4.751 0 5.347-.02 7.213-.105 1.862-.085 3.134-.38 4.247-.813a8.575 8.575 0 0 0 3.098-2.018 8.575 8.575 0 0 0 2.018-3.098c.433-1.113.728-2.385.813-4.247.085-1.866.106-2.462.106-7.213 0-4.751-.02-5.347-.106-7.213-.085-1.862-.38-3.134-.813-4.247a8.575 8.575 0 0 0-2.018-3.098A8.575 8.575 0 0 0 28.96.924C27.847.491 26.575.196 24.713.111 22.847.026 22.25.005 17.5.005"/><path d="M17.5 8.516a8.984 8.984 0 1 0 0 17.968 8.984 8.984 0 0 0 0-17.968zm0 14.816a5.832 5.832 0 1 1 0-11.664 5.832 5.832 0 0 1 0 11.664zM28.938 8.161a2.1 2.1 0 1 1-4.199 0 2.1 2.1 0 0 1 4.199 0"/></g></svg>