<svg id="SvgjsSvg1055" xmlns="http://www.w3.org/2000/svg" version="1.1" xmlns:xlink="http://www.w3.org/1999/xlink" xmlns:svgjs="http://svgjs.com/svgjs" width="43" height="55" viewBox="0 0 43 55"><title>Fill 1</title><desc>Created with Avocode.</desc><defs id="SvgjsDefs1056"></defs><path id="SvgjsPath1057" d="M838.89 1487.11L854.01 1498.32L867.48 1487.1599999999999L867.48 1465.3C867.48 1464.6 866.89 1464.01 866.19 1464.01L852.2800000000001 1464.01L852.2700000000001 1475.84L844.0400000000001 1475.84L844.0400000000001 1472.84L849.2700000000001 1472.84L849.2700000000001 1464.6699999999998L838.8900000000001 1472.82ZM871.95 1487.36L855.0600000000001 1501.36C854.86 1501.52 854.62 1501.61 854.3800000000001 1501.6499999999999C854.3400000000001 1501.6599999999999 854.3100000000001 1501.6599999999999 854.2700000000001 1501.6699999999998C854.2200000000001 1501.6799999999998 854.1600000000001 1501.6999999999998 854.1000000000001 1501.6999999999998C854.0800000000002 1501.6999999999998 854.0700000000002 1501.6999999999998 854.0500000000002 1501.6999999999998C854.0400000000002 1501.6999999999998 854.0300000000002 1501.6999999999998 854.0100000000002 1501.6999999999998C853.9500000000003 1501.6999999999998 853.8900000000002 1501.6799999999998 853.8200000000002 1501.6699999999998C853.8000000000002 1501.6699999999998 853.7800000000002 1501.6699999999998 853.7600000000002 1501.6599999999999C853.5400000000002 1501.62 853.3100000000002 1501.55 853.1200000000002 1501.4099999999999L835.0100000000002 1487.9799999999998L835.0100000000002 1509.7699999999998L842.8700000000002 1500.3699999999997C843.4000000000002 1499.7299999999996 844.3500000000003 1499.6399999999996 844.9900000000002 1500.1799999999996C845.6300000000002 1500.7099999999996 845.7100000000003 1501.6599999999996 845.1800000000003 1502.2899999999995L837.0200000000003 1512.0599999999995L869.8200000000003 1512.0599999999995L861.6600000000003 1502.2899999999995C861.1200000000003 1501.6599999999994 861.2100000000003 1500.7099999999996 861.8400000000003 1500.1799999999996C862.4800000000002 1499.6399999999996 863.4300000000003 1499.7299999999996 863.9600000000003 1500.3699999999997L871.9500000000003 1509.9299999999996ZM870.66 1483C873.03 1483 874.9599999999999 1484.94 874.9599999999999 1487.3L874.9599999999999 1510.77C874.9599999999999 1513.1399999999999 873.03 1515.07 870.66 1515.07L836.3 1515.07C833.9399999999999 1515.07 832 1513.1399999999999 832 1510.77L832 1487.3C832 1485.08 833.71 1483.26 835.88 1483.04L835.88 1472.28C835.86 1472.1499999999999 835.86 1472.03 835.88 1471.8999999999999L835.88 1471.85L835.89 1471.85C835.9499999999999 1471.49 836.13 1471.1599999999999 836.4399999999999 1470.9199999999998L848.5999999999999 1461.37C848.7499999999999 1461.25 848.9899999999999 1461.12 849.0899999999999 1461.09C849.2199999999999 1461.02 849.5099999999999 1461 849.5099999999999 1461L866.1899999999998 1461C868.5599999999998 1461 870.4899999999998 1462.93 870.4899999999998 1465.3L870.4899999999998 1483Z " fill="#0099ce" fill-opacity="1" transform="matrix(1,0,0,1,-832,-1461)"></path><path id="SvgjsPath1058" d="M846.51 1482.01L860.13 1482.01C860.96 1482.01 861.64 1481.33 861.64 1480.5C861.64 1479.67 860.96 1479 860.13 1479L846.51 1479C845.67 1479 845 1479.67 845 1480.5C845 1481.33 845.67 1482.01 846.51 1482.01 " fill="#0099ce" fill-opacity="1" transform="matrix(1,0,0,1,-832,-1461)"></path><path id="SvgjsPath1059" d="M846.51 1488.01L860.13 1488.01C860.96 1488.01 861.64 1487.33 861.64 1486.5C861.64 1485.67 860.96 1485 860.13 1485L846.51 1485C845.67 1485 845 1485.67 845 1486.5C845 1487.33 845.67 1488.01 846.51 1488.01 " fill="#0099ce" fill-opacity="1" transform="matrix(1,0,0,1,-832,-1461)"></path></svg>