<?xml version="1.0" encoding="UTF-8" standalone="no"?>
<svg width="73px" height="39px" viewBox="0 0 73 39" version="1.1" xmlns="http://www.w3.org/2000/svg" xmlns:xlink="http://www.w3.org/1999/xlink">
    <!-- Generator: Sketch 40.3 (33839) - http://www.bohemiancoding.com/sketch -->
    <title>Group 6</title>
    <desc>Created with Sketch.</desc>
    <defs></defs>
    <g id="Lavora-con-noi" stroke="none" stroke-width="1" fill="none" fill-rule="evenodd">
        <g id="Posizioni-aperte" transform="translate(-249.000000, -1509.000000)" fill="#0099CE">
            <g id="Cosa-Cerchiamo" transform="translate(150.000000, 1420.000000)">
                <g id="Group" transform="translate(62.000000, 89.000000)">
                    <g id="Page-1" transform="translate(37.000000, 0.000000)">
                        <g id="Group-6">
                            <path d="M35.8741119,22.3378435 L6.36473095,12.8235391 L36.3286238,3.29143043 L65.8380048,12.804887 L35.8741119,22.3378435 Z M72.1959571,12.7989522 C72.1959571,12.7523217 72.1985643,12.707387 72.19335,12.6616043 C72.19335,12.6556696 72.1907429,12.6497348 72.1898738,12.6429522 C72.1273024,12.083387 71.7423143,11.5831696 71.1591833,11.3949522 L36.8092071,0.320647826 C36.5033024,0.221452174 36.1704571,0.220604348 35.8602071,0.318952174 L1.04355238,11.3932565 C0.455207143,11.5806261 0.0658738095,12.0850826 0.00504047619,12.6497348 C0.00504047619,12.6505826 0.00417142857,12.6514304 0.00417142857,12.6531261 C-0.00104285714,12.7048435 0.000695238095,12.7574087 0.00156428571,12.8099739 C0.000695238095,12.863387 -0.00191190476,12.9176478 0.00330238095,12.970213 C0.0606595238,13.535713 0.44912381,14.0435609 1.03746905,14.2334739 L35.3935286,25.3077783 C35.548219,25.3586478 35.7098619,25.3832348 35.8706357,25.3832348 C36.0296714,25.3832348 36.1887071,25.3586478 36.3425286,25.3094739 L63.9721595,16.5200609 L63.9721595,25.9902783 C63.0596595,26.5023652 62.4391595,27.4519304 62.4391595,28.5524087 C62.4391595,29.652887 63.0596595,30.6016043 63.9721595,31.1145391 L63.9721595,35.1357783 C63.9721595,35.9547783 64.6526238,36.6194739 65.4929929,36.6194739 C66.3333619,36.6194739 67.0138262,35.9547783 67.0138262,35.1357783 L67.0138262,31.1018217 C67.9124214,30.5863435 68.5224929,29.642713 68.5224929,28.5524087 C68.5224929,27.4612565 67.9124214,26.5184739 67.0138262,26.0029957 L67.0138262,15.5518435 L71.153969,14.2351696 C71.8048857,14.0283 72.2072548,13.4331261 72.1959571,12.7989522 L72.1959571,12.7989522 Z" id="Fill-1"></path>
                            <path d="M56.296731,29.2458457 C51.5630286,33.5621283 44.6514929,36.0326935 37.208969,36.0326935 C37.15335,36.0326935 37.099469,36.0428674 37.044719,36.0488022 C36.989969,36.0428674 36.9369571,36.0326935 36.880469,36.0326935 C29.4379452,36.0326935 22.5255405,33.5621283 17.7927071,29.2449978 L17.7927071,22.404737 L14.7510405,21.4178674 L14.7510405,29.8884978 L14.7510405,29.892737 C14.7519095,29.990237 14.761469,30.087737 14.7814571,30.1835413 C14.7892786,30.2216935 14.8057905,30.2573022 14.81535,30.2946065 C14.832731,30.3497152 14.8466357,30.4065196 14.8683619,30.4599326 C14.8900881,30.5099543 14.9205048,30.555737 14.9465762,30.6023674 C14.9683024,30.6405196 14.9848143,30.6795196 15.0091476,30.7151283 C15.0656357,30.7965196 15.1299452,30.8719761 15.2003381,30.94065 C15.2012071,30.9414978 15.2012071,30.9423457 15.2029452,30.9431935 C20.5050048,36.0632152 28.4063857,39.0000848 36.880469,39.0000848 C36.9369571,39.0000848 36.989969,38.9899109 37.044719,38.9839761 C37.099469,38.9899109 37.15335,39.0000848 37.208969,39.0000848 C45.6821833,39.0000848 53.5835643,36.064063 58.8864929,30.9431935 L58.8873619,30.9423457 C58.9594929,30.8728239 59.0246714,30.7965196 59.0811595,30.7134326 C59.0968024,30.6913891 59.1054929,30.6668022 59.1202667,30.6439109 C59.1567667,30.5837152 59.1932667,30.5235196 59.2210762,30.4590848 C59.2410643,30.41415 59.2506238,30.3658239 59.2653976,30.3191935 C59.2801714,30.2734109 59.2984214,30.2301717 59.307981,30.1826935 C59.327969,30.0868891 59.3375286,29.990237 59.3383976,29.892737 L59.3383976,29.8884978 L59.3383976,20.747237 L56.296731,21.7332587 L56.296731,29.2458457 Z" id="Fill-4"></path>
                        </g>
                    </g>
                </g>
            </g>
        </g>
    </g>
</svg>